<svg width="16" height="16" viewBox="0 0 16 16" fill="none" xmlns="http://www.w3.org/2000/svg">
<path d="M4.29077 3.58834L4.41528 3.42593L4.26323 3.27099L2.18465 1.15302L2.96563 0.356952L5.06397 2.49507L5.21461 2.64857L5.38889 2.52255C5.57113 2.39077 5.75173 2.27122 5.93848 2.17071L5.93848 2.17071L5.93966 2.17006C6.57377 1.82437 7.28145 1.64366 8 1.64366C8.71836 1.64366 9.42585 1.82427 10.0598 2.16979C10.2505 2.27493 10.4344 2.39261 10.6101 2.52208L10.7849 2.65077L10.9369 2.49586L13.0352 0.356984L13.8162 1.15302L11.7376 3.27099L11.5857 3.42579L11.71 3.58834H4.29077ZM14.1536 9.80466H15.75V10.9356H13.796H13.6147L13.5584 11.1079C13.5504 11.1322 13.5444 11.1557 13.5405 11.1706C13.536 11.1876 13.5337 11.1964 13.5313 11.2037C13.3861 11.6438 13.2044 12.0694 12.9927 12.4686C12.9733 12.505 12.9576 12.5305 12.9387 12.561C12.9235 12.5857 12.9063 12.6136 12.8834 12.6533L12.7886 12.8177L12.9215 12.9532L14.6138 14.6782L13.8328 15.4742L12.3225 13.9347L12.1365 13.7452L11.9585 13.9422C11.775 14.1452 11.5892 14.3358 11.3937 14.5042C11.0716 14.7815 10.7273 15.019 10.3717 15.2108L10.3715 15.2109C10.0102 15.4063 9.62765 15.5576 9.23178 15.6615C9.17118 15.6766 9.11031 15.6904 9.0492 15.703V11.1774V10.9274H8.7992H7.1992H6.9492V11.1774V15.702C6.88766 15.6898 6.82735 15.6765 6.76767 15.661L6.76766 15.661C6.37673 15.5594 5.99298 15.4072 5.62658 15.2099C5.02938 14.887 4.49269 14.4587 4.04146 13.9448L3.86372 13.7424L3.6751 13.9347L2.16556 15.4742L1.38462 14.6782L3.07686 12.9532L3.20924 12.8183L3.11548 12.6541C3.09802 12.6236 3.07958 12.5935 3.06357 12.5674C3.06051 12.5624 3.05754 12.5576 3.05468 12.5529C3.03588 12.5222 3.02023 12.496 3.00638 12.4701C2.79398 12.0694 2.61301 11.6436 2.46684 11.2038L2.46661 11.2031C2.46464 11.1972 2.46251 11.1895 2.45801 11.1721L2.4573 11.1694C2.45349 11.1546 2.44761 11.1319 2.44002 11.1087L2.38367 10.9364H2.2024H0.25V9.80548H1.8456H2.12965L2.09358 9.52372C2.04253 9.12509 2.01 8.72345 2.01 8.32333C2.01 7.92658 2.04251 7.52827 2.09355 7.13209L2.12987 6.85015H1.8456H0.25V5.71924H3.0048H15.75V6.84933H14.1544H13.8707L13.9064 7.13079C13.9567 7.52732 13.9892 7.92574 13.9892 8.32251C13.9892 8.72261 13.9567 9.12344 13.9056 9.52297L13.8696 9.80466H14.1536ZM12.3194 14.2886C12.3228 14.2848 12.3261 14.2811 12.3295 14.2774L12.144 14.1098L11.9655 14.2849L11.9739 14.2934C11.8397 14.4342 11.7014 14.5691 11.5568 14.6936C11.2216 14.9823 10.8624 15.2302 10.4904 15.4308C10.1111 15.636 9.70942 15.7947 9.2936 15.9038C9.21258 15.9239 9.13109 15.942 9.0492 15.9579L12.3194 14.2886Z" fill="#C219FF" stroke="white" stroke-width="0.5"/>
</svg>
