<svg width="8" height="8" viewBox="0 0 8 8" fill="none" xmlns="http://www.w3.org/2000/svg">
<path d="M1.9148 1.91917H6.0852C6.042 1.85475 6.0048 1.78421 5.958 1.72305L7.0832 0.576525L6.5176 0L5.3792 1.16039C5.28684 1.09237 5.19023 1.03053 5.09 0.975282C4.75467 0.792474 4.38027 0.69683 4 0.69683C3.61973 0.69683 3.24533 0.792474 2.91 0.975282C2.81 1.0291 2.7148 1.0923 2.6212 1.15998L1.4828 0L0.9172 0.576525L2.0424 1.72305C1.9952 1.78462 1.9584 1.85475 1.9148 1.91917ZM1.5024 2.73462H0V3.55007H0.9228C0.8968 3.7519 0.88 3.95658 0.88 4.16166C0.88 4.36838 0.8968 4.57469 0.9228 4.77774H0V5.59319H1.1012C1.1064 5.60909 1.1096 5.62581 1.1148 5.6413C1.19 5.86759 1.2832 6.08695 1.3928 6.29366C1.4104 6.32669 1.4308 6.35686 1.4492 6.38907L0.5172 7.33908L1.0828 7.9156L1.9268 7.05489C2.16216 7.32295 2.44222 7.54644 2.754 7.715C2.9456 7.81815 3.1468 7.89807 3.3524 7.95148C3.434 7.97268 3.5168 7.98614 3.5996 7.99959V5.58871H4.3996V8C4.48274 7.98822 4.56525 7.97216 4.6468 7.95189C4.85471 7.89736 5.05557 7.81799 5.2452 7.71541C5.4312 7.61511 5.6108 7.49116 5.7784 7.34682C5.8816 7.25794 5.9784 7.15845 6.072 7.05489L6.9164 7.9156L7.482 7.33908L6.55 6.38907C6.5688 6.35645 6.5892 6.32587 6.6068 6.29285C6.716 6.08695 6.8096 5.86759 6.8844 5.64089C6.8896 5.62499 6.8928 5.60868 6.898 5.59278H8V4.77733H7.0768C7.1028 4.57387 7.1196 4.36797 7.1196 4.16126C7.1196 3.95617 7.1028 3.75149 7.0772 3.54967H8V2.73462H1.5024Z" fill="#74009E"/>
</svg>
